<svg width="712" height="680" viewBox="0 0 712 680" fill="none" xmlns="http://www.w3.org/2000/svg">
<g clip-path="url(#clip0_773_2)">
<path d="M73.0221 565.594L74.0889 560.564C74.5271 558.126 74.8129 555.44 74.9843 552.506C75.1367 549.934 75.2129 545.971 75.2129 540.618V503.792C75.2129 498.629 75.0796 494.571 74.7938 491.656C74.5652 489.332 74.2032 486.874 73.7269 484.321L72.0123 476.567H82.2619L95.2168 476.739C104.171 477.101 111.296 479.368 116.592 483.54C123.07 488.627 126.308 495.199 126.308 503.258C126.308 506.173 125.908 508.821 125.127 511.183C124.308 513.793 122.975 516.194 121.127 518.366C119.298 520.557 117.335 522.271 115.24 523.491C113.43 524.596 111.106 525.758 108.248 526.977L112.458 533.664C114.782 537.341 117.659 541.361 121.107 545.742C125.165 551.115 129.052 555.802 132.767 559.821L141.702 569.176H124.956C120.612 565.27 117.45 562.241 115.487 560.126C112.496 557.04 109.105 553.23 105.371 548.638C102.056 544.695 99.1223 540.903 96.5504 537.265L89.4443 527.091V539.989L89.6729 548.333L90.2063 555.02C90.5683 558.812 90.9493 561.765 91.3875 563.898L92.6258 569.176H72.0314L73.0411 565.556L73.0221 565.594ZM89.4252 485.559V523.033L94.0928 522.5C98.6651 521.795 102.59 519.699 105.866 516.232C109.258 512.593 110.991 508.516 111.067 503.982C111.067 499.448 109.334 495.352 105.866 491.732C102.742 488.493 98.7413 486.569 93.8451 485.941L89.4061 485.579L89.4252 485.559Z" fill="white"/>
<path d="M345.873 561.955C345.873 561.955 345.835 562.05 345.817 562.106H345.779C345.779 562.106 345.835 561.974 345.873 561.955Z" fill="white"/>
<path d="M148.618 564.889C149.056 563.003 149.475 560.488 149.856 557.364L150.447 551.629C150.599 549.419 150.675 546.714 150.675 543.513V503.963L150.561 497.162L150.199 490.36C149.932 487.369 149.532 484.664 149.018 482.245L147.475 476.567H168.069L166.526 482.245C165.973 484.664 165.573 487.35 165.345 490.36L164.983 497.162L164.868 503.963V543.513C164.83 546.714 164.907 549.419 165.097 551.629L165.688 557.364C166.05 560.488 166.45 562.984 166.926 564.889L168.05 569.214H147.456L148.58 564.889H148.618Z" fill="white"/>
<path d="M205.982 476.567L204.325 483.14C203.696 485.864 203.277 489.064 203.087 492.722L202.782 499.047V516.155H242.389V504.134L242.275 496.666L241.799 490.265C241.532 487.788 241.17 485.407 240.732 483.159L239.189 476.529H259.783L258.659 480.739C257.554 484.968 256.906 489.465 256.697 494.227L256.583 503.277V537.664L256.754 547.018L257.345 555.954C257.611 559.078 257.954 561.574 258.354 563.479L259.783 569.156H239.189L240.427 564.831C241.723 559.307 242.389 554.639 242.389 550.81V527.662H202.782V539.493L202.953 547.952L203.544 555.534C203.868 558.659 204.268 561.44 204.782 563.879L205.963 569.156H185.369L186.722 564.488C187.712 560.583 188.303 555.801 188.493 550.162L188.55 542.046V505.525L188.436 496.875L187.846 489.484C187.522 486.493 187.198 484.092 186.836 482.32L185.35 476.51H205.944L205.982 476.567Z" fill="white"/>
<path d="M290.97 476.567L290.208 479.349C289.027 483.654 288.284 488.36 287.96 493.504L287.788 501.486V559.136L293.713 558.716C297.695 558.412 301.562 557.878 305.315 557.116C309.773 556.24 314.022 555.116 318.042 553.744L325.319 550.963L317.623 569.195H270.394L271.633 565.06C272.147 563.136 272.566 561.06 272.871 558.85C273.271 556.164 273.481 553.611 273.519 551.153L273.576 541.38V501.772L273.462 495.199C273.309 493.275 273.062 490.799 272.757 487.808L271.861 482.13L270.375 476.567H290.97Z" fill="white"/>
<path d="M433.778 563.478C429.987 557.458 427.834 553.838 424.291 546.542C423.014 543.932 421.528 540.731 418.918 535.13C417.356 531.777 412.441 521.013 409.678 514.936C405.697 506.153 400.362 494.475 396.095 485.101C394.247 481.043 391.942 476.071 390.151 472.204C388.379 468.336 387.236 465.307 385.159 461.84C383.673 462.945 383.197 465.917 382.721 467.365C381.902 469.917 381.292 471.746 380.701 474.204C380.416 475.366 380.073 476.433 380.416 477.69C380.759 478.948 381.235 479.462 381.806 480.929C382.378 482.396 383.197 484.415 383.807 486.206C387.522 497.447 392.151 508.649 396.495 519.698C399.6 527.548 403.01 535.435 406.63 542.941C410.25 550.428 413.546 557.191 415.165 565.345C415.394 566.507 415.375 567.841 415.546 569.041C423.014 569.041 430.501 569.136 437.97 569.213C436.56 567.155 435.074 565.612 433.74 563.478H433.778Z" fill="white"/>
<path d="M385.371 459.308C385.371 459.308 385.333 459.462 385.333 459.52L385.294 459.559C385.294 459.559 385.333 459.404 385.352 459.308H385.371Z" fill="white"/>
<path d="M514.727 363.136C514.689 362.64 514.537 362.05 514.575 361.612C514.613 361.173 514.442 360.831 514.575 360.488C514.708 360.145 515.185 360.469 515.451 360.316C515.718 360.164 515.813 360.221 516.194 360.107C516.576 359.992 517.509 360.011 517.909 360.03C518.309 360.069 518.805 360.049 519.052 360.049C519.319 360.049 519.681 360.278 519.7 360.049C519.7 359.802 519.471 359.878 519.071 359.84C518.671 359.802 518.1 359.707 517.395 359.592C516.69 359.478 514.88 359.116 514.175 358.906C513.47 358.697 512.88 358.468 512.422 358.278C511.965 358.087 511.832 358.011 511.546 357.878C511.26 357.744 511.298 357.744 511.051 357.611C510.822 357.478 510.898 357.516 510.555 357.306C510.212 357.097 509.603 356.658 509.107 356.296C508.631 355.934 507.983 355.439 507.488 354.982C506.231 353.839 504.783 352.6 503.563 351.419C500.058 348.028 496.686 343.875 493.752 340.312C493.161 339.588 492.895 339.303 492.723 339.036C489.866 334.235 487.522 329.205 485.484 324.328C484.093 321.013 483.064 318.289 481.597 315.203C481.007 313.964 480.416 312.955 479.73 311.793C479.044 310.611 478.568 309.354 477.501 308.459C476.415 307.563 474.987 307.22 473.786 308.078C472.586 308.954 472.377 310.364 472.453 311.735C472.719 318.079 473.196 324.633 474.453 330.768C475.691 336.902 477.825 342.579 479.54 348.447C480.435 351.514 481.369 354.906 481.959 357.782C482.55 360.659 482.874 362.869 482.969 365.536C483.064 368.203 482.398 370.432 482.112 372.966C482.093 373.157 482.112 373.081 482.074 373.271C482.036 373.462 481.959 373.633 481.864 373.843C480.797 376.262 479.807 378.891 478.321 381.063C476.835 383.235 475.253 385.407 473.139 386.874C471.043 388.341 468.966 389.884 466.375 389.312C461.67 388.264 458.641 387.883 455.364 383.673C452.106 379.463 450.277 375.271 448.334 369.346C446.962 365.155 445.762 358.506 444.828 353.286C443.609 346.428 442.409 338.998 440.275 332.006C439.094 328.1 437.703 323.49 434.484 320.499C432.121 318.308 429.244 317.584 426.044 318.27C422.824 318.956 420.424 320.213 418.061 322.804C415.699 325.395 414.308 328.462 412.632 331.911C410.955 335.359 409.183 338.56 407.583 342.541C404.897 349.266 402.839 354.563 400.248 362.202C394.209 379.92 387.56 399.695 381.35 417.794C380.549 420.156 379.806 422.309 379.063 424.481C363.441 469.213 349.019 515.336 328.463 558.107C311.279 593.847 281.178 625.434 245.342 642.828C231.683 649.457 217.489 653.153 203.468 655.401C164.184 661.746 121.623 647.305 88.8361 626.196C66.3366 611.717 47.4948 592.97 32.5967 570.833C19.8705 551.934 9.5828 531.435 10.2305 508.097C10.2877 505.811 10.4401 503.544 10.7259 501.277C12.1738 488.684 16.4794 475.976 21.7756 464.489C22.3472 463.25 22.8615 461.231 22.8425 460.316C22.8234 459.402 22.8996 459.802 22.5567 459.364C19.299 455.23 12.4595 472.319 11.7165 474.205C8.43972 482.549 6.70605 491.408 5.18195 500.153C3.25777 511.279 3.79121 521.89 5.58203 532.997C9.06841 554.544 15.8697 575.958 28.234 594.113C50.9241 627.491 82.7016 652.163 119.623 667.937C158.24 684.436 204.725 682.378 243.494 667.461C280.644 653.172 311.622 623.719 331.645 589.694C354.602 550.658 364.318 504.858 379.692 462.603C387.103 442.237 394.152 421.757 401.372 401.315C404.478 392.532 406.821 385.692 409.831 377.748C412.841 369.785 416.175 363.098 420.138 355.858C421.376 353.591 423.339 352.2 425.663 351.953C427.987 351.705 429.416 353.096 430.178 354.925C433.417 362.659 433.798 370.451 435.227 378.624C436.655 386.797 438.484 395.085 441.971 402.686C444.333 407.811 447.61 411.564 451.992 415.089C455.002 417.508 458.869 418.251 462.641 418.918C464.661 419.28 466.661 419.413 468.757 419.032C470.871 418.651 472.472 418.137 474.491 416.86C476.511 415.584 478.74 413.736 480.34 411.621C481.959 409.507 483.312 407.125 484.512 404.61C485.712 402.096 486.875 399.333 487.77 396.59C490.151 389.407 492.247 382.054 494.266 374.738C494.876 375.767 495.467 376.643 496.381 377.462C497.296 378.262 498.096 379.234 499.201 379.882C503.849 382.606 508.345 384.454 513.832 384.587C514.289 384.587 513.489 382.378 513.851 381.997C514.213 381.615 514.632 384.054 514.613 383.349C514.461 380.339 514.975 377.138 515.147 373.804C515.299 370.471 515.089 366.546 514.804 363.117L514.727 363.136Z" fill="white"/>
<path d="M670.205 274.947C665.366 274.947 661.079 274.471 657.345 273.499C653.116 272.756 648.105 271.632 642.314 270.127C638.561 268.946 633.379 267.612 626.73 266.107C621.053 264.831 615.07 264.012 608.783 263.707H606.783C602.077 263.707 598.077 264.717 594.819 266.755C591.561 268.794 589.027 271.899 587.217 276.071C585.522 279.71 584.493 283.997 584.131 288.931V303.391C584.131 305.963 584.493 309.22 585.217 313.183C585.331 315.869 585.884 319.87 586.855 325.224C588.303 333.473 589.084 338.121 589.218 339.207C589.465 340.388 589.58 341.569 589.58 342.751C589.332 342.96 589.027 343.398 588.665 344.027C587.751 345.646 585.731 346.599 584.131 347.418C581.559 348.733 578.702 349.323 575.825 349.323C574.701 349.323 573.577 349.247 572.434 349.247C571.938 349.247 571.424 349.247 570.929 349.247C570.871 349.247 570.452 349.19 570.414 349.247C571.519 349.361 572.662 349.323 573.767 349.381C574.129 349.381 574.491 349.4 574.853 349.438C574.91 349.438 575.215 349.495 575.177 349.495C574.758 349.609 574.453 349.781 574.224 349.99C573.177 351.019 573.958 353.057 573.958 354.334C573.958 356.087 573.958 357.82 573.958 359.554C573.958 365.536 573.939 371.499 573.901 377.481C573.901 377.538 569.5 374.947 569.138 374.7C568.242 374.071 567.366 373.423 566.471 372.795C567.499 373.633 568.509 374.509 569.538 375.347C570.509 376.129 571.519 376.872 572.624 377.481C573.177 377.786 573.729 378.072 574.32 378.319C575.577 378.834 577.006 378.662 578.34 378.643C579.787 378.624 581.235 378.548 582.683 378.319C583.369 378.205 584.055 378.072 584.722 377.881C585.35 377.691 585.979 377.367 586.589 377.081C587.884 376.49 589.142 375.843 590.38 375.138C591.618 374.433 592.838 373.671 594 372.833C594.419 372.528 598.496 369.689 598.248 369.27C600.172 372.49 601.563 374.833 602.42 376.338C602.782 376.871 604.059 378.91 606.231 382.434C607.564 384.359 608.955 386.016 610.403 387.407L611.851 388.055C612.098 388.055 612.213 387.616 612.213 386.778C610.765 380.987 609.622 376.662 608.764 373.766C607.793 370.985 606.84 366.908 605.869 361.554C607.317 360.278 608.955 358.011 610.765 354.81C611.736 353.305 614.385 349.304 618.747 342.77C624.787 334.73 628.54 329.91 629.988 328.31C633.969 323.071 638.084 318.556 642.314 314.821C647.267 310.745 651.916 307.753 656.259 305.829C659.403 304.324 662.603 303.581 665.861 303.581C667.309 303.581 668.757 303.734 670.205 304.058C670.452 304.058 670.757 302.933 671.119 300.685C672.091 294.151 672.624 290.512 672.758 289.769C672.872 289.236 673.177 286.721 673.653 282.225C674.129 277.729 674.377 275.271 674.377 274.833C672.929 274.947 671.538 274.985 670.205 274.985V274.947ZM623.815 303.867C620.671 306.972 617.528 310.554 614.385 314.631C613.299 316.136 610.403 319.718 605.678 325.395C602.535 329.243 599.887 331.987 597.696 333.587C597.581 332.939 597.334 331.663 596.972 329.739C596.495 327.491 596.057 324.061 595.695 319.451C595.219 316.784 594.724 313.183 594.247 308.687L593.523 302.591C593.523 298.304 594.914 295.256 597.696 293.427C600.706 291.712 604.097 290.855 607.85 290.855C611.603 290.855 616.004 291.388 621.072 292.455C627.835 293.846 632.007 294.646 633.569 294.856C629.949 297.428 626.692 300.419 623.777 303.848L623.815 303.867Z" fill="white"/>
<path d="M569.328 378.32C569.443 378.32 569.557 378.358 569.652 378.377C571.5 378.663 573.386 378.815 575.253 378.682C576.282 378.606 577.292 378.453 578.283 378.167C579.273 377.882 580.226 377.481 581.14 377.005C582.017 376.567 582.817 375.881 583.445 375.119C584.207 374.186 584.512 372.585 584.76 371.423C585.084 369.88 585.179 368.299 585.103 366.737C584.893 363.174 583.769 359.707 583.541 356.125C583.426 354.22 584.893 350.867 582.626 349.819C581.94 349.495 581.14 349.381 580.378 349.457C566.49 350.772 553.859 340.732 546.448 328.939C530.407 303.429 550.944 276.186 553.44 250.028C553.687 247.476 554.468 244.942 553.954 242.427C553.44 239.931 551.744 237.512 549.305 236.921C548.562 236.75 544.466 251 544.162 251.991C537.856 272.166 529.892 292.132 529.187 313.488C528.654 329.606 533.093 346.809 542.523 359.745C542.676 359.954 542.828 360.164 542.98 360.354C546.048 364.412 549.725 368.013 553.84 370.909C555.516 372.09 557.307 373.176 559.022 374.319C560.527 375.31 562.07 376.243 563.689 377.024C564.623 377.481 565.613 377.767 566.642 377.977C567.538 378.167 568.433 378.244 569.309 378.377L569.328 378.32Z" fill="white"/>
<path d="M456.601 278.586C453.629 276.929 451.19 275.767 449.323 275.119C444.904 273.576 442.274 272.699 441.379 272.471C438.845 271.918 437.131 271.651 436.254 271.651C435.816 271.651 435.092 273.023 434.101 275.786C433.435 277.653 432.444 280.682 431.129 284.892C430.691 287.312 430.082 290.417 429.301 294.151L428.977 298.285C430.52 298.723 434.33 300.095 440.388 302.419C445.246 304.629 448.885 306.23 451.305 307.22H451.648C452.2 307.22 452.905 306.401 453.801 304.744C454.467 303.429 455.401 301.048 456.62 297.637C457.935 293.884 458.83 291.027 459.268 289.026C459.706 285.273 459.935 283.063 459.935 282.415C459.935 281.101 458.83 279.825 456.62 278.605L456.601 278.586Z" fill="white"/>
<path d="M538.847 343.703C538.504 344.179 538.351 344.636 537.951 345.132C535.76 347.875 533.15 351.095 530.502 353.247C527.911 355.362 525.015 357.401 521.834 358.62C520.596 359.096 519.319 359.439 518.024 359.63C517.071 359.763 516.042 359.801 515.071 359.725C514.766 359.706 514.442 359.63 514.156 359.763C513.451 360.125 513.547 361.268 513.375 361.992C513.166 362.945 512.689 364.735 512.327 365.917C511.603 368.241 510.613 371.289 509.908 373.461C509.203 375.614 508.993 376.757 508.365 378.891C508.06 379.919 508.022 380.91 507.66 381.92C507.412 382.625 507.26 383.52 507.945 384.015C508.288 384.263 508.707 384.358 509.127 384.434C516.614 385.92 524.52 383.653 530.407 378.891C537.075 373.48 541.038 366.926 545.21 359.706C547.61 355.553 548.258 350.714 549.915 346.294C546.143 345.627 542.504 344.789 538.866 343.684L538.847 343.703Z" fill="white"/>
<path d="M460.392 291.027C461.154 287.274 461.764 284.187 462.221 281.768C463.536 277.576 464.526 274.547 465.193 272.661C466.184 269.899 466.908 268.527 467.346 268.527C468.222 268.527 469.937 268.794 472.471 269.346C473.347 269.556 475.995 270.451 480.415 271.994C482.282 272.661 484.721 273.804 487.693 275.462C489.903 276.681 491.008 277.938 491.008 279.272C491.008 279.939 490.779 282.13 490.341 285.883C489.903 287.864 489.026 290.741 487.693 294.494C486.474 297.904 485.54 300.286 484.873 301.6C483.997 303.258 483.273 304.077 482.72 304.077H482.378C479.958 303.086 476.319 301.486 471.461 299.276C465.384 296.952 461.593 295.58 460.049 295.142L460.373 291.008L460.392 291.027Z" fill="white"/>
<path d="M574.816 2.58964C579.388 27.6992 590.609 49.9702 604.802 69.8407C629.626 113.468 669.424 147.894 690.781 194.817C712.728 242.426 718.158 298.056 701.678 348.294C685.427 398.361 644.467 443.798 590.952 453.095C564.661 455.629 539.304 451.419 514.023 445.437C532.96 445.018 551.687 444.427 570.186 441.207C576.226 440.159 582.112 438.731 587.847 437.016C593.562 435.435 599.43 434.596 604.955 432.444L609.089 430.939C646.696 415.793 673.501 381.081 686.132 343.131C701.24 297.256 696.134 245.36 675.921 201.714C665.843 179.709 651.021 159.896 635.494 140.254C619.701 120.308 603.316 100.361 590.438 78.0708C579.617 54.5615 572.53 28.5946 574.778 2.58964H574.816Z" fill="white"/>
<path d="M527.529 0.000672068C547.323 41.5134 538.712 87.5794 510.668 123.148C488.607 148.563 461.04 168.909 432.558 186.227C401.123 205.869 365.993 221.186 334.768 240.085C324.632 246.848 313.373 253.935 308.287 264.375C305.734 270.681 309.163 274.796 313.697 279.883C330.405 296.21 352.123 307.05 366.812 326.521C382.072 346.41 384.244 368.186 368.793 388.59C327.223 442.314 211.43 472.32 152.218 434.903C143.588 429.302 135.015 422.787 129.185 414.137C123.318 405.507 119.279 395.924 116.726 386.265C109.391 358.05 114.021 328.14 122.098 301.125C120.231 319.472 119.679 338.199 122.632 356.298C126.385 379.445 134.844 396.248 151.818 412.08C188.092 443.534 247.018 435.513 289.254 420.367C313.678 411.527 361.611 387.161 361.401 357.993C357.725 332.388 330.729 317.909 311.925 302.421C303.505 295.448 295.313 288.875 290.931 277.559C277.652 240.352 349.704 212.08 374.852 197.715C418.822 174.301 464.164 149.839 496.456 111.222C526.424 79.4445 538.578 43.1518 527.51 -0.0183792L527.529 0.000672068Z" fill="white"/>
<path d="M78.1301 460.317C77.5586 458.203 76.6822 454.735 75.6344 450.62L77.6729 448.048C78.2445 447.324 78.2254 446.334 77.6348 445.838C77.0252 445.362 76.0726 445.572 75.482 446.315L74.7771 447.191C74.1103 444.543 73.4245 441.685 72.7005 438.809L75.5011 435.265C76.0917 434.541 76.0726 433.55 75.463 433.074C74.8533 432.598 73.9008 432.807 73.3292 433.55L71.8623 435.398C71.1574 432.522 70.4715 429.683 69.8047 426.997L72.7386 423.301C73.3292 422.577 73.3102 421.567 72.7005 421.11C72.1099 420.634 71.1383 420.843 70.5668 421.586L68.9855 423.568C67.4424 417.223 66.2803 412.327 65.9754 411.127L76.1679 399.391C78.4921 396.762 81.407 389.123 78.3588 386.684C75.2915 384.265 68.5092 388.856 66.4708 391.714L57.4405 404.135C57.3071 404.135 51.8013 404.135 44.3522 404.078L45.9144 402.097C46.505 401.354 46.486 400.363 45.8763 399.887C45.2667 399.41 44.3141 399.62 43.7235 400.363L40.8087 404.059C38.0463 404.059 35.1124 404.021 32.1594 404.021L33.6264 402.173C34.1979 401.449 34.1788 400.458 33.5883 399.982C32.9786 399.506 32.007 399.715 31.4355 400.458L28.6349 404.002C25.682 403.983 22.7671 403.964 20.0047 403.926L20.7096 403.011C21.2811 402.268 21.2621 401.297 20.6715 400.82C20.0618 400.344 19.0902 400.554 18.4996 401.278L16.4802 403.849C12.2127 403.811 8.65013 403.735 6.45923 403.678C-1.67567 403.43 -11.9443 408.231 44.2379 422.272L31.5879 439.666L26.8822 445.267L14.537 444.695L12.6318 447.115L26.3297 452.278L34.236 464.109L36.1411 461.689L32.9596 450.03L37.2651 444.219L51.3821 427.949C77.9968 479.254 80.302 468.148 78.1682 460.298L78.1301 460.317Z" fill="white"/>
<path d="M554.373 1.42838C557.726 40.8645 573.519 77.2144 580.53 116.079C585.331 142.56 583.579 170.318 578.759 196.761C574.129 222.957 562.775 248.238 550.067 270.985C543.952 282.397 538.179 293.675 533.416 306.001L531.569 305.696C531.035 292.208 534.121 278.72 537.855 265.993C546.009 240.96 553.82 217.489 560.755 192.532C564.261 180.358 567.061 168.013 568.338 155.458C571.176 130.558 567.213 105.144 562.184 79.5958C557.307 54.048 551.915 27.8525 552.487 1.50459L554.354 1.42838H554.373Z" fill="white"/>
<path d="M463.613 501.297V567.92H448.22V501.297H427.568V488.209H484.265V501.297H463.613Z" fill="white"/>
<path d="M494.305 567.901V488.191H509.642V567.901H494.305Z" fill="white"/>
<path d="M578.968 565.196C572.548 567.615 565.632 568.834 558.202 568.834C545.248 568.834 535.608 564.948 529.302 557.175C523.986 550.602 521.338 541.744 521.338 530.58C521.338 517.51 524.672 507.166 531.321 499.545C538.313 491.467 548.296 487.428 561.251 487.428C567.29 487.428 572.967 488.209 578.263 489.791L576.13 503.984C571.291 502.098 566.09 501.164 560.565 501.164C553.306 501.164 547.705 503.679 543.781 508.728C540.085 513.452 538.237 519.873 538.237 527.989C538.237 545.935 545.991 554.927 561.479 554.927C567.023 554.927 572.053 553.822 576.587 551.574L578.949 565.177L578.968 565.196Z" fill="white"/>
<path d="M248.638 352.449C246.161 355.878 244.142 358.412 242.637 360.069C239.874 363.289 237.531 365.727 235.588 367.385C233.244 369.461 231.453 370.49 230.196 370.49C228.939 370.49 227.719 370.643 226.462 370.947C224.385 371.366 221.909 371.824 219.013 372.338C215.565 372.852 212.593 373.214 210.097 373.424C206.649 373.938 203.677 374.205 201.181 374.205C198.419 374.205 197.047 373.938 197.047 373.424C197.047 373.005 197.599 372.548 198.704 372.033C205.334 369.538 212.097 367.061 219.013 364.565C220.118 364.26 221.909 363.632 224.405 362.698C224.824 362.489 226.538 361.707 229.586 360.374C231.663 359.536 233.111 358.812 233.93 358.202C235.168 357.573 235.797 357.059 235.797 356.64C235.797 356.125 234.483 355.859 231.854 355.859C227.853 355.859 224.747 355.706 222.537 355.401C218.937 354.887 215.984 354.106 213.621 353.077C210.859 351.839 209.487 349.762 209.487 346.847C209.487 343.323 210.859 339.437 213.621 335.188C216.098 331.149 219.146 327.358 222.728 323.834C226.043 320.519 229.701 317.718 233.702 315.432C237.016 313.355 239.912 312.212 242.408 312.003C244.199 312.212 245.647 312.727 246.752 313.565C247.99 314.498 248.619 315.699 248.619 317.147C248.619 317.566 248.409 318.709 247.99 320.576L246.961 322.748L246.333 324.138L246.752 323.205L246.542 323.986V323.834L246.333 324.291L246.123 324.748C245.437 326.101 244.466 327.187 243.227 328.006C242.408 328.939 241.284 329.396 239.912 329.396C238.807 329.396 238.179 329.339 238.045 329.244C237.626 328.939 237.417 328.615 237.417 328.311L236.788 327.377C236.369 327.072 235.759 326.92 234.921 326.92C234.368 326.92 233.187 327.282 231.396 328.006C229.739 328.844 228.291 329.778 227.053 330.806C225.262 331.949 223.947 333.092 223.109 334.236C221.871 335.169 221.242 335.95 221.242 336.56C221.242 337.589 221.928 338.37 223.319 338.884C224.843 339.398 226.71 339.76 228.92 339.97C229.739 340.065 230.92 340.18 232.444 340.275C234.102 340.275 235.34 340.332 236.178 340.427C238.807 340.427 241.151 340.694 243.227 341.208C245.018 341.304 246.885 341.837 248.828 342.77C250.352 343.704 251.114 345.057 251.114 346.809C251.114 347.743 250.295 349.61 248.638 352.41V352.449Z" fill="white"/>
</g>
<defs>
<clipPath id="clip0_773_2">
<rect width="711.28" height="679.502" rx="30" fill="white"/>
</clipPath>
</defs>
</svg>
