<svg width="55" height="52" viewBox="0 0 55 52" fill="none" xmlns="http://www.w3.org/2000/svg">
<g clip-path="url(#clip0_733_2946)">
<path d="M5.58813 43.2831L5.66978 42.8982C5.70331 42.7116 5.72518 42.506 5.7383 42.2815C5.74997 42.0847 5.7558 41.7815 5.7558 41.3718V38.5536C5.7558 38.1585 5.74559 37.848 5.72372 37.6249C5.70623 37.447 5.67853 37.259 5.64208 37.0636L5.51086 36.4702H6.29523L7.28662 36.4833C7.97185 36.511 8.51712 36.6845 8.92242 37.0038C9.41812 37.3931 9.66597 37.8961 9.66597 38.5128C9.66597 38.7358 9.63535 38.9385 9.57557 39.1193C9.51288 39.319 9.41083 39.5027 9.26941 39.6689C9.12945 39.8366 8.97928 39.9678 8.81891 40.0611C8.6804 40.1457 8.50254 40.2346 8.28385 40.3279L8.60605 40.8396C8.78392 41.121 9.00407 41.4286 9.26795 41.764C9.57849 42.1751 9.87591 42.5337 10.1602 42.8414L10.844 43.5572H9.56245C9.23004 43.2583 8.98803 43.0265 8.83786 42.8647C8.60897 42.6285 8.34945 42.3369 8.0637 41.9856C7.81002 41.6838 7.5855 41.3936 7.38868 41.1152L6.84487 40.3366V41.3237L6.86237 41.9622L6.90319 42.474C6.93089 42.7641 6.96005 42.9901 6.99358 43.1534L7.08834 43.5572H5.51232L5.58959 43.2802L5.58813 43.2831ZM6.84341 37.1584V40.0261L7.20061 39.9853C7.55051 39.9313 7.85084 39.771 8.10161 39.5056C8.36112 39.2272 8.49379 38.9152 8.49962 38.5682C8.49962 38.2212 8.36695 37.9077 8.10161 37.6307C7.86251 37.3829 7.55634 37.2356 7.18165 37.1875L6.84195 37.1598L6.84341 37.1584Z" fill="#0047AB"/>
<path d="M26.4687 43.0044C26.4687 43.0044 26.4657 43.0118 26.4642 43.0162H26.4613C26.4613 43.0162 26.4657 43.0059 26.4687 43.0044Z" fill="#F39200"/>
<path d="M11.3732 43.2292C11.4068 43.0848 11.4388 42.8924 11.468 42.6533L11.5132 42.2145C11.5249 42.0453 11.5307 41.8383 11.5307 41.5934V38.5667L11.5219 38.0462L11.4942 37.5258C11.4738 37.2969 11.4432 37.0898 11.4039 36.9047L11.2858 36.4702H12.8618L12.7437 36.9047C12.7014 37.0898 12.6708 37.2954 12.6533 37.5258L12.6256 38.0462L12.6169 38.5667V41.5934C12.6139 41.8383 12.6198 42.0453 12.6343 42.2145L12.6795 42.6533C12.7072 42.8924 12.7379 43.0834 12.7743 43.2292L12.8603 43.5601H11.2843L11.3703 43.2292H11.3732Z" fill="#0047AB"/>
<path d="M15.7631 36.4702L15.6363 36.9732C15.5882 37.1817 15.5561 37.4266 15.5415 37.7065L15.5182 38.1906V39.4998H18.5492V38.5798L18.5405 38.0083L18.5041 37.5184C18.4836 37.3289 18.4559 37.1467 18.4224 36.9746L18.3043 36.4673H19.8803L19.7943 36.7895C19.7098 37.1131 19.6602 37.4572 19.6442 37.8217L19.6354 38.5142V41.1458L19.6485 41.8616L19.6937 42.5454C19.7141 42.7845 19.7404 42.9755 19.771 43.1213L19.8803 43.5557H18.3043L18.3991 43.2248C18.4982 42.802 18.5492 42.4448 18.5492 42.1517V40.3804H15.5182V41.2857L15.5313 41.9331L15.5765 42.5133C15.6013 42.7524 15.6319 42.9653 15.6713 43.1519L15.7617 43.5557H14.1857L14.2892 43.1985C14.365 42.8997 14.4102 42.5337 14.4248 42.1022L14.4291 41.4811V38.6862L14.4204 38.0243L14.3752 37.4587C14.3504 37.2298 14.3256 37.0461 14.2979 36.9105L14.1842 36.4658H15.7602L15.7631 36.4702Z" fill="#0047AB"/>
<path d="M22.2669 36.4702L22.2086 36.6831C22.1182 37.0126 22.0614 37.3727 22.0366 37.7663L22.0235 38.3772V42.7889L22.4769 42.7568C22.7816 42.7335 23.0775 42.6927 23.3648 42.6343C23.7059 42.5673 24.031 42.4813 24.3387 42.3763L24.8956 42.1634L24.3066 43.5587H20.6924L20.7871 43.2423C20.8265 43.0951 20.8586 42.9361 20.8819 42.767C20.9125 42.5614 20.9286 42.3661 20.9315 42.178L20.9359 41.4301V38.3991L20.9271 37.8961C20.9154 37.7488 20.8965 37.5593 20.8732 37.3304L20.8046 36.8959L20.6909 36.4702H22.2669Z" fill="#0047AB"/>
<path d="M33.1956 43.1211C32.9055 42.6604 32.7407 42.3834 32.4696 41.825C32.3719 41.6252 32.2581 41.3803 32.0584 40.9517C31.9389 40.6951 31.5627 39.8714 31.3513 39.4063C31.0466 38.7342 30.6384 37.8405 30.3118 37.1232C30.1704 36.8126 29.994 36.4321 29.8569 36.1361C29.7213 35.8402 29.6339 35.6084 29.475 35.343C29.3612 35.4276 29.3248 35.655 29.2883 35.7658C29.2257 35.9612 29.179 36.1011 29.1338 36.2892C29.1119 36.3781 29.0857 36.4598 29.1119 36.556C29.1382 36.6522 29.1746 36.6916 29.2184 36.8039C29.2621 36.9161 29.3248 37.0707 29.3714 37.2077C29.6557 38.0679 30.01 38.9252 30.3424 39.7708C30.5801 40.3714 30.841 40.975 31.118 41.5494C31.3951 42.1224 31.6473 42.64 31.7712 43.264C31.7887 43.3529 31.7872 43.4549 31.8004 43.5468C32.3719 43.5468 32.9448 43.5541 33.5163 43.5599C33.4085 43.4025 33.2947 43.2844 33.1927 43.1211H33.1956Z" fill="#0047AB"/>
<path d="M29.4911 35.1492C29.4911 35.1492 29.4882 35.161 29.4882 35.1654L29.4852 35.1683C29.4852 35.1683 29.4882 35.1565 29.4896 35.1492H29.4911Z" fill="#F39200"/>
<path d="M39.3904 27.7896C39.3874 27.7517 39.3758 27.7065 39.3787 27.6729C39.3816 27.6394 39.3685 27.6132 39.3787 27.5869C39.3889 27.5607 39.4253 27.5855 39.4458 27.5738C39.4662 27.5621 39.4735 27.5665 39.5026 27.5578C39.5318 27.549 39.6032 27.5505 39.6338 27.5519C39.6644 27.5548 39.7024 27.5534 39.7213 27.5534C39.7417 27.5534 39.7694 27.5709 39.7709 27.5534C39.7709 27.5344 39.7534 27.5403 39.7228 27.5373C39.6921 27.5344 39.6484 27.5271 39.5945 27.5184C39.5405 27.5096 39.402 27.4819 39.3481 27.4659C39.2941 27.4499 39.2489 27.4324 39.2139 27.4178C39.179 27.4032 39.1687 27.3974 39.1469 27.3872C39.125 27.377 39.1279 27.377 39.109 27.3668C39.0915 27.3566 39.0973 27.3595 39.0711 27.3434C39.0448 27.3274 38.9982 27.2939 38.9603 27.2662C38.9238 27.2385 38.8742 27.2006 38.8363 27.1656C38.7401 27.0781 38.6293 26.9833 38.536 26.8929C38.2677 26.6334 38.0097 26.3156 37.7852 26.043C37.74 25.9876 37.7196 25.9657 37.7064 25.9453C37.4878 25.5779 37.3084 25.193 37.1524 24.8198C37.046 24.5661 36.9673 24.3576 36.855 24.1214C36.8098 24.0266 36.7646 23.9494 36.7121 23.8604C36.6597 23.77 36.6232 23.6738 36.5416 23.6053C36.4585 23.5368 36.3491 23.5105 36.2573 23.5761C36.1654 23.6432 36.1494 23.7511 36.1552 23.8561C36.1756 24.3416 36.2121 24.8431 36.3083 25.3125C36.4031 25.782 36.5663 26.2165 36.6976 26.6655C36.7661 26.9002 36.8375 27.1597 36.8827 27.3799C36.9279 27.6 36.9527 27.7691 36.96 27.9733C36.9673 28.1774 36.9162 28.3479 36.8944 28.5419C36.8929 28.5564 36.8944 28.5506 36.8915 28.5652C36.8885 28.5798 36.8827 28.5929 36.8754 28.6089C36.7938 28.7941 36.718 28.9953 36.6043 29.1615C36.4905 29.3277 36.3695 29.4939 36.2077 29.6061C36.0473 29.7184 35.8884 29.8365 35.6901 29.7928C35.33 29.7126 35.0982 29.6834 34.8474 29.3612C34.5981 29.039 34.4582 28.7183 34.3095 28.2648C34.2045 27.9441 34.1126 27.4353 34.0412 27.0358C33.9479 26.511 33.8561 25.9424 33.6928 25.4073C33.6024 25.1084 33.4959 24.7556 33.2496 24.5267C33.0688 24.3591 32.8486 24.3036 32.6037 24.3561C32.3573 24.4086 32.1736 24.5048 31.9928 24.7031C31.812 24.9014 31.7056 25.1361 31.5773 25.4C31.449 25.6639 31.3134 25.9088 31.191 26.2135C30.9854 26.7282 30.8279 27.1335 30.6297 27.7181C30.1675 29.074 29.6587 30.5873 29.1834 31.9724C29.1222 32.1531 29.0653 32.3179 29.0084 32.4841C27.8129 35.9073 26.7093 39.437 25.1362 42.71C23.8211 45.4451 21.5176 47.8623 18.7752 49.1934C17.7299 49.7008 16.6437 49.9836 15.5707 50.1557C12.5644 50.6412 9.30742 49.5361 6.79832 47.9207C5.07651 46.8126 3.63462 45.378 2.49451 43.6839C1.52062 42.2377 0.733334 40.6689 0.782904 38.883C0.787278 38.708 0.798941 38.5345 0.82081 38.361C0.931613 37.3973 1.26111 36.4249 1.66641 35.5457C1.71015 35.451 1.74951 35.2964 1.74805 35.2265C1.7466 35.1565 1.75243 35.1871 1.72618 35.1536C1.47688 34.8372 0.953482 36.145 0.896623 36.2893C0.645859 36.9279 0.513187 37.6058 0.396553 38.275C0.249302 39.1264 0.290124 39.9385 0.427169 40.7885C0.69397 42.4374 1.21445 44.0761 2.16065 45.4655C3.89704 48.0198 6.32887 49.9078 9.15434 51.115C12.1096 52.3776 15.6669 52.2201 18.6338 51.0785C21.4768 49.9851 23.8474 47.7311 25.3796 45.1273C27.1365 42.14 27.88 38.6351 29.0565 35.4014C29.6237 33.8429 30.1631 32.2756 30.7157 30.7113C30.9533 30.0391 31.1326 29.5158 31.363 28.9078C31.5933 28.2984 31.8485 27.7866 32.1517 27.2326C32.2465 27.0591 32.3967 26.9527 32.5745 26.9338C32.7524 26.9148 32.8617 27.0212 32.9201 27.1612C33.1679 27.7531 33.1971 28.3494 33.3064 28.9749C33.4158 29.6003 33.5557 30.2345 33.8225 30.8162C34.0033 31.2084 34.2541 31.4956 34.5894 31.7653C34.8197 31.9505 35.1157 32.0074 35.4044 32.0584C35.5589 32.0861 35.712 32.0963 35.8724 32.0671C36.0342 32.038 36.1567 31.9986 36.3112 31.9009C36.4657 31.8032 36.6363 31.6618 36.7588 31.5C36.8827 31.3382 36.9862 31.1559 37.0781 30.9635C37.1699 30.771 37.2589 30.5596 37.3274 30.3497C37.5096 29.8 37.67 29.2373 37.8245 28.6774C37.8712 28.7562 37.9164 28.8232 37.9864 28.8859C38.0563 28.9472 38.1176 29.0215 38.2021 29.0711C38.5579 29.2796 38.9019 29.421 39.3218 29.4312C39.3568 29.4312 39.2956 29.2621 39.3233 29.2329C39.351 29.2038 39.3831 29.3904 39.3816 29.3364C39.3699 29.1061 39.4093 28.8611 39.4224 28.606C39.4341 28.3509 39.4181 28.0505 39.3962 27.7881L39.3904 27.7896Z" fill="#FF8000"/>
<path d="M51.2885 21.0408C50.9182 21.0408 50.5902 21.0044 50.3044 20.93C49.9808 20.8732 49.5973 20.7872 49.1541 20.672C48.8669 20.5816 48.4703 20.4795 47.9615 20.3644C47.5271 20.2667 47.0693 20.204 46.5882 20.1807H46.4351C46.075 20.1807 45.7688 20.2579 45.5195 20.4139C45.2702 20.5699 45.0763 20.8076 44.9378 21.1269C44.808 21.4053 44.7293 21.7334 44.7016 22.111V23.2175C44.7016 23.4144 44.7293 23.6637 44.7847 23.9669C44.7934 24.1725 44.8357 24.4786 44.9101 24.8883C45.0209 25.5196 45.0807 25.8753 45.0909 25.9584C45.1098 26.0488 45.1186 26.1392 45.1186 26.2296C45.0996 26.2457 45.0763 26.2792 45.0486 26.3273C44.9786 26.4512 44.8241 26.5241 44.7016 26.5868C44.5048 26.6874 44.2861 26.7326 44.0659 26.7326C43.9799 26.7326 43.8939 26.7268 43.8064 26.7268C43.7685 26.7268 43.7292 26.7268 43.6913 26.7268C43.6869 26.7268 43.6548 26.7224 43.6519 26.7268C43.7365 26.7355 43.8239 26.7326 43.9085 26.737C43.9362 26.737 43.9639 26.7384 43.9916 26.7414C43.996 26.7414 44.0193 26.7457 44.0164 26.7457C43.9843 26.7545 43.961 26.7676 43.9435 26.7836C43.8633 26.8624 43.9231 27.0184 43.9231 27.116C43.9231 27.2502 43.9231 27.3828 43.9231 27.5155C43.9231 27.9733 43.9216 28.4296 43.9187 28.8874C43.9187 28.8918 43.5819 28.6935 43.5542 28.6746C43.4857 28.6265 43.4186 28.5769 43.3501 28.5288C43.4288 28.5929 43.5061 28.66 43.5848 28.7241C43.6592 28.7839 43.7365 28.8408 43.821 28.8874C43.8633 28.9108 43.9056 28.9326 43.9508 28.9516C44.047 28.9909 44.1563 28.9778 44.2584 28.9764C44.3692 28.9749 44.48 28.9691 44.5908 28.9516C44.6433 28.9428 44.6958 28.9326 44.7468 28.918C44.7949 28.9035 44.843 28.8787 44.8897 28.8568C44.9888 28.8116 45.085 28.762 45.1798 28.7081C45.2746 28.6542 45.3679 28.5958 45.4568 28.5317C45.4889 28.5084 45.8009 28.2911 45.7819 28.2591C45.9292 28.5054 46.0356 28.6848 46.1012 28.7999C46.1289 28.8408 46.2266 28.9968 46.3928 29.2665C46.4949 29.4137 46.6013 29.5406 46.7121 29.647L46.8229 29.6966C46.8418 29.6966 46.8506 29.663 46.8506 29.5989C46.7398 29.1557 46.6523 28.8247 46.5867 28.6031C46.5124 28.3903 46.4395 28.0783 46.3651 27.6686C46.4759 27.5709 46.6013 27.3974 46.7398 27.1525C46.8141 27.0373 47.0168 26.7311 47.3507 26.2311C47.8128 25.6158 48.1 25.247 48.2108 25.1245C48.5155 24.7236 48.8305 24.378 49.1541 24.0923C49.5332 23.7803 49.8889 23.5514 50.2213 23.4041C50.4619 23.289 50.7068 23.2321 50.9561 23.2321C51.0669 23.2321 51.1777 23.2438 51.2885 23.2686C51.3075 23.2686 51.3308 23.1825 51.3585 23.0105C51.4329 22.5104 51.4737 22.232 51.4839 22.1751C51.4926 22.1343 51.516 21.9418 51.5524 21.5978C51.5889 21.2537 51.6078 21.0656 51.6078 21.0321C51.497 21.0408 51.3906 21.0438 51.2885 21.0438V21.0408ZM47.7385 23.254C47.4979 23.4916 47.2573 23.7657 47.0168 24.0777C46.9337 24.1929 46.7121 24.467 46.3505 24.9014C46.11 25.1959 45.9073 25.4059 45.7396 25.5284C45.7309 25.4788 45.7119 25.3811 45.6842 25.2339C45.6478 25.0618 45.6143 24.7994 45.5866 24.4466C45.5501 24.2425 45.5122 23.9669 45.4758 23.6228L45.4204 23.1563C45.4204 22.8283 45.5268 22.595 45.7396 22.455C45.97 22.3238 46.2295 22.2582 46.5167 22.2582C46.8039 22.2582 47.1407 22.299 47.5285 22.3807C48.0461 22.4871 48.3654 22.5483 48.4849 22.5644C48.2079 22.7612 47.9586 22.9901 47.7356 23.2525L47.7385 23.254Z" fill="#FF8000"/>
<path d="M43.5688 28.9515C43.5775 28.9515 43.5863 28.9544 43.5936 28.9559C43.735 28.9777 43.8793 28.9894 44.0222 28.9792C44.1009 28.9734 44.1782 28.9617 44.254 28.9398C44.3298 28.918 44.4027 28.8873 44.4727 28.8509C44.5398 28.8174 44.601 28.7649 44.6491 28.7066C44.7074 28.6351 44.7308 28.5127 44.7497 28.4237C44.7745 28.3056 44.7818 28.1846 44.776 28.0651C44.7599 27.7924 44.6739 27.5271 44.6564 27.253C44.6477 27.1072 44.7599 26.8506 44.5864 26.7704C44.5339 26.7456 44.4727 26.7369 44.4144 26.7427C43.3516 26.8433 42.385 26.075 41.8178 25.1725C40.5902 23.2204 42.1619 21.1355 42.3529 19.1338C42.3718 18.9384 42.4316 18.7445 42.3922 18.5521C42.3529 18.3611 42.2231 18.1759 42.0365 18.1307C41.9797 18.1176 41.6662 19.2081 41.6429 19.284C41.1603 20.8279 40.5509 22.3558 40.4969 23.9902C40.4561 25.2236 40.7958 26.5401 41.5175 27.53C41.5292 27.546 41.5408 27.5621 41.5525 27.5767C41.7872 27.8872 42.0686 28.1628 42.3835 28.3844C42.5118 28.4747 42.6488 28.5578 42.7801 28.6453C42.8952 28.7211 43.0133 28.7926 43.1373 28.8524C43.2087 28.8873 43.2845 28.9092 43.3632 28.9252C43.4318 28.9398 43.5003 28.9457 43.5673 28.9559L43.5688 28.9515Z" fill="#FF8000"/>
<path d="M34.9421 21.3193C34.7147 21.1924 34.5281 21.1035 34.3852 21.0539C34.047 20.9358 33.8458 20.8688 33.7772 20.8513C33.5833 20.809 33.4521 20.7886 33.3851 20.7886C33.3515 20.7886 33.2961 20.8935 33.2203 21.1049C33.1693 21.2478 33.0935 21.4796 32.9929 21.8018C32.9593 21.987 32.9127 22.2246 32.8529 22.5104L32.8281 22.8268C32.9462 22.8603 33.2378 22.9653 33.7014 23.1431C34.0732 23.3123 34.3517 23.4347 34.5368 23.5105H34.5631C34.6053 23.5105 34.6593 23.4478 34.7278 23.321C34.7788 23.2204 34.8503 23.0382 34.9436 22.7772C35.0442 22.49 35.1127 22.2713 35.1462 22.1182C35.1798 21.831 35.1973 21.6619 35.1973 21.6123C35.1973 21.5117 35.1127 21.414 34.9436 21.3207L34.9421 21.3193Z" fill="#FF8000"/>
<path d="M41.2361 26.3025C41.2099 26.3389 41.1982 26.3739 41.1676 26.4118C40.9999 26.6218 40.8002 26.8682 40.5975 27.0329C40.3993 27.1947 40.1777 27.3507 39.9342 27.444C39.8394 27.4805 39.7417 27.5067 39.6426 27.5213C39.5697 27.5315 39.491 27.5344 39.4166 27.5286C39.3933 27.5271 39.3685 27.5213 39.3466 27.5315C39.2927 27.5592 39.3 27.6467 39.2869 27.7021C39.2708 27.775 39.2344 27.912 39.2067 28.0024C39.1513 28.1803 39.0755 28.4136 39.0215 28.5798C38.9676 28.7445 38.9515 28.832 38.9034 28.9953C38.8801 29.074 38.8772 29.1498 38.8495 29.2271C38.8305 29.281 38.8189 29.3496 38.8714 29.3875C38.8976 29.4064 38.9297 29.4137 38.9617 29.4195C39.5347 29.5333 40.1398 29.3598 40.5903 28.9953C41.1005 28.5812 41.4038 28.0797 41.7231 27.5271C41.9068 27.2093 41.9563 26.839 42.0832 26.5008C41.7945 26.4497 41.516 26.3856 41.2376 26.301L41.2361 26.3025Z" fill="#FF8000"/>
<path d="M35.2323 22.2714C35.2906 21.9842 35.3373 21.748 35.3723 21.5628C35.4729 21.2421 35.5487 21.0103 35.5997 20.8659C35.6755 20.6545 35.7309 20.5496 35.7644 20.5496C35.8315 20.5496 35.9627 20.57 36.1566 20.6123C36.2237 20.6283 36.4263 20.6968 36.7646 20.8149C36.9075 20.8659 37.0941 20.9534 37.3215 21.0802C37.4906 21.1736 37.5752 21.2698 37.5752 21.3718C37.5752 21.4229 37.5577 21.5905 37.5242 21.8777C37.4906 22.0294 37.4236 22.2495 37.3215 22.5367C37.2282 22.7977 37.1568 22.9799 37.1057 23.0805C37.0387 23.2074 36.9833 23.2701 36.941 23.2701H36.9147C36.7296 23.1942 36.4511 23.0718 36.0794 22.9027C35.6143 22.7248 35.3241 22.6198 35.2061 22.5863L35.2308 22.2699L35.2323 22.2714Z" fill="#FF8000"/>
<path d="M43.9887 0.198242C44.3386 2.11979 45.1973 3.82411 46.2835 5.34474C48.1831 8.6834 51.2288 11.3179 52.8631 14.9088C54.5426 18.5521 54.9582 22.8093 53.697 26.6538C52.4534 30.4853 49.3189 33.9625 45.2235 34.6739C43.2116 34.8678 41.2711 34.5456 39.3364 34.0878C40.7856 34.0558 42.2188 34.0106 43.6344 33.7642C44.0966 33.684 44.5471 33.5746 44.9859 33.4434C45.4233 33.3224 45.8723 33.2583 46.2951 33.0935L46.6115 32.9783C49.4895 31.8193 51.5408 29.1629 52.5074 26.2587C53.6635 22.7481 53.2728 18.7766 51.7259 15.4365C50.9547 13.7526 49.8204 12.2364 48.6322 10.7332C47.4236 9.20679 46.1697 7.68034 45.1842 5.97456C44.3561 4.17548 43.8137 2.18832 43.9858 0.198242H43.9887Z" fill="#FF8000"/>
<path d="M40.37 -6.91356e-06C41.8848 3.17682 41.2258 6.7021 39.0798 9.42405C37.3915 11.3689 35.2819 12.926 33.1023 14.2513C30.6967 15.7544 28.0082 16.9266 25.6187 18.3728C24.8431 18.8904 23.9814 19.4327 23.5922 20.2317C23.3968 20.7143 23.6592 21.0292 24.0062 21.4184C25.2848 22.6679 26.9469 23.4975 28.0709 24.9875C29.2387 26.5095 29.4049 28.176 28.2226 29.7374C25.0414 33.8488 16.1801 36.145 11.6488 33.2816C10.9884 32.853 10.3323 32.3544 9.88618 31.6925C9.43713 31.032 9.12805 30.2987 8.93269 29.5595C8.37139 27.4003 8.72566 25.1114 9.34383 23.044C9.20095 24.448 9.15867 25.8812 9.38465 27.2662C9.67186 29.0376 10.3192 30.3235 11.6182 31.535C14.3941 33.9421 18.9035 33.3283 22.1357 32.1692C24.0048 31.4927 27.6729 29.628 27.6569 27.396C27.3755 25.4365 25.3096 24.3285 23.8706 23.1432C23.2262 22.6096 22.5993 22.1066 22.264 21.2406C21.2478 18.3932 26.7617 16.2297 28.6862 15.1304C32.0511 13.3386 35.521 11.4666 37.9922 8.51139C40.2855 6.07956 41.2156 3.30221 40.3686 -0.00146484L40.37 -6.91356e-06Z" fill="#FF8000"/>
<path d="M5.97905 35.2265C5.93531 35.0647 5.86824 34.7994 5.78806 34.4844L5.94406 34.2876C5.98779 34.2322 5.98634 34.1564 5.94114 34.1185C5.89449 34.0821 5.82159 34.0981 5.77639 34.155L5.72245 34.222C5.67142 34.0194 5.61894 33.8007 5.56354 33.5805L5.77785 33.3094C5.82305 33.254 5.82159 33.1781 5.77494 33.1417C5.72828 33.1052 5.65539 33.1213 5.61165 33.1781L5.49939 33.3196C5.44544 33.0994 5.39296 32.8822 5.34193 32.6766L5.56645 32.3938C5.61165 32.3384 5.61019 32.2611 5.56354 32.2261C5.51834 32.1897 5.44399 32.2057 5.40025 32.2626L5.27924 32.4142C5.16115 31.9287 5.07221 31.554 5.04889 31.4622L5.82888 30.5641C6.00675 30.3629 6.22981 29.7782 5.99654 29.5916C5.76182 29.4065 5.24279 29.7578 5.08679 29.9765L4.39573 30.9271C4.38553 30.9271 3.96419 30.9271 3.39414 30.9227L3.51369 30.7711C3.55888 30.7142 3.55742 30.6384 3.51077 30.602C3.46412 30.5655 3.39122 30.5816 3.34602 30.6384L3.12296 30.9213C2.91156 30.9213 2.68704 30.9183 2.46106 30.9183L2.57332 30.7769C2.61706 30.7215 2.6156 30.6457 2.57041 30.6093C2.52375 30.5728 2.4494 30.5889 2.40566 30.6457L2.19134 30.9169C1.96536 30.9154 1.7423 30.914 1.5309 30.9111L1.58484 30.8411C1.62858 30.7842 1.62712 30.7099 1.58193 30.6734C1.53527 30.637 1.46092 30.653 1.41572 30.7084L1.26118 30.9052C0.934607 30.9023 0.661974 30.8965 0.494312 30.8921C-0.128224 30.8732 -0.914048 31.2405 3.38539 32.315L2.41732 33.6461L2.05721 34.0748L1.11247 34.031L0.966682 34.2162L2.01493 34.6113L2.61997 35.5167L2.76577 35.3315L2.52229 34.4392L2.85179 33.9946L3.93211 32.7495C5.96884 36.6757 6.14525 35.8257 5.98196 35.2251L5.97905 35.2265Z" fill="#0047AB"/>
<path d="M42.4243 0.109375C42.6809 3.12729 43.8895 5.90902 44.4261 8.8832C44.7934 10.9097 44.6593 13.0339 44.2905 15.0575C43.9362 17.0622 43.0673 18.9969 42.0948 20.7376C41.6268 21.6109 41.1851 22.474 40.8206 23.4173L40.6792 23.394C40.6383 22.3618 40.8745 21.3295 41.1603 20.3557C41.7843 18.4399 42.382 16.6438 42.9127 14.7339C43.181 13.8023 43.3953 12.8575 43.493 11.8967C43.7102 9.99123 43.407 8.04635 43.0221 6.09126C42.6488 4.13618 42.2362 2.13152 42.28 0.115207L42.4229 0.109375H42.4243Z" fill="#FF8000"/>
<path d="M35.4787 38.3624V43.4608H34.3007V38.3624H32.7203V37.3608H37.0591V38.3624H35.4787Z" fill="#0047AB"/>
<path d="M37.8275 43.4594V37.3594H39.0012V43.4594H37.8275Z" fill="#0047AB"/>
<path d="M44.3065 43.2523C43.8152 43.4375 43.2859 43.5308 42.7173 43.5308C41.7259 43.5308 40.9882 43.2333 40.5057 42.6385C40.0989 42.1355 39.8962 41.4576 39.8962 40.6032C39.8962 39.6031 40.1514 38.8114 40.6602 38.2283C41.1953 37.6101 41.9592 37.301 42.9506 37.301C43.4128 37.301 43.8472 37.3608 44.2525 37.4818L44.0892 38.568C43.7189 38.4236 43.3209 38.3522 42.8981 38.3522C42.3426 38.3522 41.914 38.5446 41.6137 38.931C41.3308 39.2926 41.1894 39.7839 41.1894 40.405C41.1894 41.7783 41.7828 42.4665 42.9681 42.4665C43.3924 42.4665 43.7773 42.3819 44.1242 42.2099L44.305 43.2508L44.3065 43.2523Z" fill="#0047AB"/>
<path d="M19.0274 26.9717C18.8379 27.2341 18.6833 27.428 18.5682 27.5548C18.3568 27.8012 18.1774 27.9878 18.0287 28.1147C17.8494 28.2736 17.7124 28.3523 17.6161 28.3523C17.5199 28.3523 17.4266 28.364 17.3304 28.3873C17.1715 28.4194 16.9819 28.4544 16.7603 28.4937C16.4965 28.5331 16.269 28.5608 16.078 28.5768C15.8141 28.6162 15.5867 28.6366 15.3957 28.6366C15.1843 28.6366 15.0793 28.6162 15.0793 28.5768C15.0793 28.5448 15.1216 28.5098 15.2062 28.4704C15.7135 28.2794 16.2311 28.0899 16.7603 27.8989C16.8449 27.8756 16.9819 27.8275 17.1729 27.756C17.205 27.74 17.3362 27.6802 17.5695 27.5781C17.7284 27.514 17.8392 27.4586 17.9019 27.4119C17.9967 27.3638 18.0448 27.3245 18.0448 27.2924C18.0448 27.253 17.9442 27.2326 17.743 27.2326C17.4368 27.2326 17.1992 27.221 17.0301 27.1976C16.7545 27.1583 16.5285 27.0985 16.3477 27.0198C16.1363 26.925 16.0314 26.7661 16.0314 26.543C16.0314 26.2733 16.1363 25.9759 16.3477 25.6508C16.5373 25.3417 16.7705 25.0516 17.0446 24.7818C17.2983 24.5282 17.5782 24.3138 17.8844 24.1389C18.1381 23.98 18.3597 23.8925 18.5507 23.8765C18.6877 23.8925 18.7985 23.9319 18.8831 23.996C18.9779 24.0675 19.026 24.1593 19.026 24.2701C19.026 24.3022 19.0099 24.3897 18.9779 24.5325L18.8991 24.6987L18.851 24.8052L18.8831 24.7337L18.867 24.7935V24.7818L18.851 24.8168L18.835 24.8518C18.7825 24.9553 18.7081 25.0384 18.6134 25.1011C18.5507 25.1726 18.4647 25.2076 18.3597 25.2076C18.2751 25.2076 18.227 25.2032 18.2168 25.1959C18.1847 25.1726 18.1687 25.1478 18.1687 25.1245L18.1206 25.053C18.0885 25.0297 18.0419 25.018 17.9777 25.018C17.9354 25.018 17.845 25.0457 17.708 25.1011C17.5812 25.1653 17.4704 25.2367 17.3756 25.3154C17.2385 25.4029 17.1379 25.4904 17.0738 25.5779C16.979 25.6493 16.9309 25.7091 16.9309 25.7557C16.9309 25.8345 16.9834 25.8942 17.0898 25.9336C17.2065 25.973 17.3493 26.0007 17.5185 26.0167C17.5812 26.024 17.6715 26.0327 17.7882 26.04C17.915 26.04 18.0098 26.0444 18.0739 26.0517C18.2751 26.0517 18.4545 26.0721 18.6134 26.1115C18.7504 26.1188 18.8933 26.1596 19.042 26.231C19.1586 26.3025 19.217 26.406 19.217 26.5401C19.217 26.6115 19.1543 26.7544 19.0274 26.9687V26.9717Z" fill="#FF8000"/>
</g>
<defs>
<clipPath id="clip0_733_2946">
<rect width="54.4318" height="52" fill="white"/>
</clipPath>
</defs>
</svg>
