<svg width="17" height="18" viewBox="0 0 17 18" fill="none" xmlns="http://www.w3.org/2000/svg">
<path d="M12.8627 8.8773C12.8593 8.51965 12.7152 8.1777 12.4616 7.92556L9.54517 5.00237C9.4178 4.87576 9.2455 4.80469 9.0659 4.80469C8.8863 4.80469 8.714 4.87576 8.58663 5.00237C8.52292 5.06557 8.47234 5.14076 8.43783 5.2236C8.40331 5.30644 8.38555 5.3953 8.38555 5.48504C8.38555 5.57478 8.40331 5.66364 8.43783 5.74648C8.47234 5.82932 8.52292 5.90451 8.58663 5.9677L10.8232 8.19749H4.02509C3.84479 8.19749 3.67188 8.26911 3.54439 8.3966C3.4169 8.52409 3.34528 8.697 3.34528 8.8773C3.34528 9.0576 3.4169 9.23051 3.54439 9.358C3.67188 9.48549 3.84479 9.55711 4.02509 9.55711H10.8232L8.58663 11.7937C8.45862 11.9208 8.38635 12.0936 8.38571 12.274C8.38507 12.4544 8.45612 12.6276 8.58323 12.7556C8.71034 12.8836 8.8831 12.9559 9.0635 12.9566C9.2439 12.9572 9.41716 12.8861 9.54517 12.759L12.4616 9.83584C12.7169 9.58203 12.8611 9.23731 12.8627 8.8773V8.8773Z" fill="#202727"/>
</svg>
