<svg width="17" height="16" viewBox="0 0 17 16" fill="none" xmlns="http://www.w3.org/2000/svg">
<path d="M15.3199 7.25842V13.168H14.0067V11.1981H3.50079V13.168H2.18756V2.66211H3.50079V9.22827H8.75373V4.63196H12.6934C14.144 4.63196 15.3199 5.80787 15.3199 7.25842ZM14.0067 9.22827V7.25842C14.0067 6.53315 13.4187 5.94519 12.6934 5.94519H10.067V9.22827H14.0067ZM6.12726 7.25842C6.4899 7.25842 6.78388 6.96446 6.78388 6.60181C6.78388 6.23917 6.4899 5.94519 6.12726 5.94519C5.76462 5.94519 5.47064 6.23917 5.47064 6.60181C5.47064 6.96446 5.76462 7.25842 6.12726 7.25842ZM6.12726 8.57166C5.03934 8.57166 4.15741 7.68976 4.15741 6.60181C4.15741 5.51389 5.03934 4.63196 6.12726 4.63196C7.21517 4.63196 8.09711 5.51389 8.09711 6.60181C8.09711 7.68976 7.21517 8.57166 6.12726 8.57166Z" fill="#757575"/>
</svg>
