<svg width="17" height="19" viewBox="0 0 17 19" fill="none" xmlns="http://www.w3.org/2000/svg">
<g clip-path="url(#clip0_292_7576)">
<path d="M8.46334 5.49705C9.81981 5.49705 10.9204 4.39651 10.9204 3.04004C10.9204 1.68356 9.82152 0.583008 8.46334 0.583008C7.10515 0.583008 5.97561 1.68356 5.97561 3.04004C5.97561 4.39651 7.10857 5.49705 8.46334 5.49705ZM14.9847 4.36409C14.5107 3.77919 13.6517 3.68841 13.0651 4.16255L11.3162 5.57895C9.70686 6.88219 7.21777 6.88219 5.60706 5.57895L3.86224 4.16275C3.27699 3.68841 2.41635 3.77953 1.94269 4.36409C1.46835 4.95105 1.55844 5.811 2.14437 6.28534L3.89124 7.70051C4.29153 8.02457 4.73175 8.2861 5.18732 8.51679L5.1566 16.9631C5.1566 17.5644 5.64733 18.0551 6.24861 18.0551H6.7639C7.36519 18.0551 7.85591 17.5644 7.85591 16.9631V13.1411H8.94791V16.9631C8.94791 17.5644 9.43863 18.0551 10.0399 18.0551H10.5552C11.1565 18.0551 11.6472 17.5644 11.6472 16.9631L11.6472 8.51713C12.1028 8.28658 12.543 8.02504 12.9429 7.7012L14.6902 6.28602C15.3669 5.811 15.4283 4.95105 14.9847 4.36409Z" fill="#02101B"/>
</g>
<defs>
<clipPath id="clip0_292_7576">
<rect width="15.2881" height="17.4721" fill="white" transform="translate(0.819092 0.583008)"/>
</clipPath>
</defs>
</svg>
