<svg width="17" height="17" viewBox="0 0 17 17" fill="none" xmlns="http://www.w3.org/2000/svg">
<path d="M5.64987 1.74353C5.64987 1.38089 5.35589 1.08691 4.99326 1.08691C4.63062 1.08691 4.33664 1.38089 4.33664 1.74353V2.40015C4.33664 2.40465 4.33692 2.40858 4.33717 2.41225C4.33917 2.44081 4.34003 2.45309 4.20065 2.59246L4.18744 2.60565C4.01227 2.78041 3.68002 3.11186 3.68002 3.71338V4.37C3.68002 4.73263 3.974 5.02661 4.33664 5.02661C4.69928 5.02661 4.99326 4.73263 4.99326 4.37V3.71338C4.99326 3.70888 4.99298 3.70494 4.99272 3.70128C4.99073 3.67272 4.98987 3.66044 5.12925 3.52106L5.14246 3.50787C5.31763 3.33312 5.64987 3.00167 5.64987 2.40015V1.74353ZM12.8727 1.74353C12.8727 1.38089 12.5787 1.08691 12.216 1.08691C11.8534 1.08691 11.5594 1.38089 11.5594 1.74353V2.40015C11.5594 2.40465 11.5597 2.40858 11.5599 2.41225C11.5619 2.44081 11.5628 2.45309 11.4234 2.59246L11.4102 2.60565C11.2351 2.78041 10.9028 3.11186 10.9028 3.71338V4.37C10.9028 4.73263 11.1968 5.02661 11.5594 5.02661C11.9221 5.02661 12.216 4.73263 12.216 4.37V3.71338C12.216 3.70888 12.2158 3.70494 12.2155 3.70128C12.2135 3.67272 12.2126 3.66044 12.352 3.52106L12.3652 3.50787C12.5404 3.33312 12.8727 3.00167 12.8727 2.40015V1.74353ZM8.60465 1.08691C8.9673 1.08691 9.26126 1.38089 9.26126 1.74353V2.40015C9.26126 3.00167 8.92902 3.33312 8.75383 3.50787L8.74063 3.52106C8.60123 3.66044 8.60215 3.67272 8.60412 3.70128C8.60438 3.70494 8.60465 3.70888 8.60465 3.71338V4.37C8.60465 4.73263 8.31068 5.02661 7.94803 5.02661C7.58538 5.02661 7.29141 4.73263 7.29141 4.37V3.71338C7.29141 3.11186 7.62366 2.78041 7.79885 2.60565L7.81205 2.59246C7.95145 2.45309 7.95053 2.44081 7.94856 2.41225C7.94829 2.40858 7.94803 2.40465 7.94803 2.40015V1.74353C7.94803 1.38089 8.242 1.08691 8.60465 1.08691ZM3.02341 7.32477H13.5293C13.5293 10.2259 11.1775 12.5777 8.27634 12.5777C5.37522 12.5777 3.02341 10.2259 3.02341 7.32477ZM2.36679 6.01154C2.00415 6.01154 1.71017 6.30551 1.71017 6.66815V7.32477C1.71017 10.0173 3.33083 12.3313 5.64987 13.3446V13.8909C5.64987 14.2536 5.94385 14.5476 6.30649 14.5476H10.2462C10.6088 14.5476 10.9028 14.2536 10.9028 13.8909V13.3446C13.2218 12.3313 14.8425 10.0173 14.8425 7.32477V6.66815C14.8425 6.30552 14.5485 6.01154 14.1859 6.01154H2.36679Z" fill="#71717A"/>
</svg>
