<svg width="26" height="26" viewBox="0 0 26 26" fill="none" xmlns="http://www.w3.org/2000/svg">
<g clip-path="url(#clip0_284_252)">
<path fill-rule="evenodd" clip-rule="evenodd" d="M22.2901 21.2558C22.5536 21.2561 22.8071 21.357 22.9987 21.5379C23.1904 21.7188 23.3057 21.9661 23.3211 22.2292C23.3366 22.4922 23.251 22.7513 23.0818 22.9534C22.9127 23.1555 22.6728 23.2853 22.4111 23.3165L22.2901 23.3237H3.67925C3.41572 23.3234 3.16225 23.2225 2.97062 23.0416C2.77899 22.8607 2.66368 22.6134 2.64823 22.3504C2.63279 22.0873 2.71838 21.8282 2.88753 21.6261C3.05667 21.4241 3.29659 21.2942 3.55828 21.2631L3.67925 21.2558H22.2901ZM8.95543 3.89085C8.93212 3.72951 8.94691 3.56496 8.9986 3.41036C9.0503 3.25577 9.13747 3.11542 9.25314 3.00056C9.36881 2.88569 9.50976 2.7995 9.66471 2.74889C9.81967 2.69827 9.98432 2.68463 10.1455 2.70906L10.2592 2.73388L13.1129 3.49796C13.4706 3.59411 13.7684 3.83915 13.9328 4.16588L13.9876 4.29305L16.893 12.0486L20.6823 13.4103C21.3437 13.6478 21.9328 14.0516 22.3929 14.5827C22.853 15.1138 23.1687 15.7544 23.3096 16.4428C23.4523 17.1397 23.2744 17.8521 22.7264 18.3329C22.3109 18.6986 21.8163 18.9633 21.2814 19.1061C20.7465 19.2488 20.1858 19.2659 19.6432 19.1559L19.4261 19.1042L3.83744 14.9271C3.63851 14.8739 3.45775 14.7677 3.31444 14.6199C3.17114 14.472 3.07066 14.288 3.02373 14.0875L3.00305 13.9635L2.35271 8.51979C2.33368 8.36045 2.35162 8.19888 2.40515 8.0476C2.45868 7.89633 2.54635 7.75942 2.66135 7.64751C2.77636 7.53561 2.91561 7.45171 3.06829 7.40234C3.22097 7.35296 3.38298 7.33944 3.54173 7.36281L3.66064 7.38763L6.00767 8.01729C6.37989 8.11655 6.6849 8.37504 6.84516 8.7183L6.89789 8.85168L7.24943 9.88975L9.8777 10.2899L8.95543 3.89085ZM11.2239 5.13261L12.1213 11.361C12.1431 11.5123 12.1313 11.6664 12.087 11.8126C12.0427 11.9588 11.9668 12.0934 11.8648 12.2071C11.7627 12.3208 11.637 12.4107 11.4964 12.4705C11.3559 12.5303 11.2039 12.5585 11.0512 12.5532L10.9302 12.5428L6.32302 11.8398C6.15526 11.8143 5.99622 11.7484 5.85967 11.6477C5.72311 11.547 5.61315 11.4145 5.5393 11.2618L5.4907 11.1429L5.07299 9.90733L4.58498 9.77602L4.98097 13.0939L19.9606 17.1077C20.4197 17.2307 20.9077 17.1325 21.281 16.8461C21.2154 16.5345 21.0773 16.2427 20.8779 15.9945C20.6785 15.7462 20.4234 15.5484 20.1333 15.4172L19.9834 15.3562L15.7484 13.8342C15.5019 13.747 15.2976 13.5697 15.1766 13.3379L15.1239 13.218L12.1916 5.39109L11.2239 5.13261Z" fill="white"/>
</g>
<defs>
<clipPath id="clip0_284_252">
<rect width="24.8145" height="24.8145" fill="white" transform="translate(0.576782 0.577148)"/>
</clipPath>
</defs>
</svg>
