<svg width="15" height="15" viewBox="0 0 15 15" fill="none" xmlns="http://www.w3.org/2000/svg">
<path d="M7.61801 14.812C3.53832 14.812 0.231079 11.5047 0.231079 7.42502C0.231079 3.34533 3.53832 0.0380859 7.61801 0.0380859C11.6977 0.0380859 15.0049 3.34533 15.0049 7.42502C15.0049 11.5047 11.6977 14.812 7.61801 14.812ZM7.61801 13.3346C10.8818 13.3346 13.5276 10.6888 13.5276 7.42502C13.5276 4.16127 10.8818 1.51547 7.61801 1.51547C4.35426 1.51547 1.70847 4.16127 1.70847 7.42502C1.70847 10.6888 4.35426 13.3346 7.61801 13.3346ZM8.35671 6.31698V9.6411H9.0954V11.1185H6.14063V9.6411H6.87932V7.79437H6.14063V6.31698H8.35671ZM8.72605 4.47025C8.72605 5.0822 8.22995 5.57829 7.61801 5.57829C7.00608 5.57829 6.50997 5.0822 6.50997 4.47025C6.50997 3.85829 7.00608 3.36221 7.61801 3.36221C8.22995 3.36221 8.72605 3.85829 8.72605 4.47025Z" fill="#71717A"/>
</svg>
