<svg width="19" height="19" viewBox="0 0 19 19" fill="none" xmlns="http://www.w3.org/2000/svg">
<path d="M7.63672 9.31934H7.64429" stroke="#020617" stroke-width="1.51506" stroke-linecap="round" stroke-linejoin="round"/>
<path d="M12.1826 9.31934H12.1902" stroke="#020617" stroke-width="1.51506" stroke-linecap="round" stroke-linejoin="round"/>
<path d="M8.39453 12.3496C8.7733 12.5769 9.30356 12.7284 9.90959 12.7284C10.5156 12.7284 11.0459 12.5769 11.4246 12.3496" stroke="#020617" stroke-width="1.51506" stroke-linecap="round" stroke-linejoin="round"/>
<path d="M15.2123 5.00179C15.8986 5.8621 16.3664 6.87575 16.5758 7.95615C16.832 8.08021 17.048 8.27392 17.1992 8.51507C17.3503 8.75623 17.4305 9.03509 17.4305 9.3197C17.4305 9.60432 17.3503 9.88317 17.1992 10.1243C17.048 10.3655 16.832 10.5592 16.5758 10.6833C16.2488 12.2085 15.4086 13.5755 14.1954 14.5561C12.9823 15.5368 11.4695 16.0717 9.90957 16.0717C8.34964 16.0717 6.83688 15.5368 5.62372 14.5561C4.41055 13.5755 3.57036 12.2085 3.24333 10.6833C2.98718 10.5592 2.77115 10.3655 2.62 10.1243C2.46884 9.88317 2.38867 9.60432 2.38867 9.3197C2.38867 9.03509 2.46884 8.75623 2.62 8.51507C2.77115 8.27392 2.98718 8.08021 3.24333 7.95615C3.55715 6.41875 4.39166 5.03666 5.60608 4.04304C6.8205 3.04943 8.34048 2.50512 9.90957 2.50195C11.4246 2.50195 12.5609 3.33523 12.5609 4.39577C12.5609 5.45631 11.8791 6.28959 11.0459 6.28959C10.4398 6.28959 9.90957 5.98658 9.90957 5.53206" stroke="#020617" stroke-width="1.51506" stroke-linecap="round" stroke-linejoin="round"/>
</svg>
