<svg width="17" height="17" viewBox="0 0 17 17" fill="none" xmlns="http://www.w3.org/2000/svg">
<g clip-path="url(#clip0_292_6268)">
<path d="M8.69849 14.1988L11.9485 10.9487C13.7435 9.15374 13.7435 6.2435 11.9485 4.44852C10.1536 2.65355 7.24337 2.65355 5.4484 4.44852C3.65343 6.2435 3.65343 9.15374 5.4484 10.9487L8.69849 14.1988ZM8.69849 16.056L4.51981 11.8773C2.21198 9.56944 2.21198 5.82775 4.51981 3.51993C6.82763 1.21211 10.5693 1.21211 12.8772 3.51993C15.185 5.82775 15.185 9.56944 12.8772 11.8773L8.69849 16.056ZM8.69849 9.01184C9.42379 9.01184 10.0117 8.42391 10.0117 7.69861C10.0117 6.97333 9.42379 6.38538 8.69849 6.38538C7.97319 6.38538 7.38526 6.97333 7.38526 7.69861C7.38526 8.42391 7.97319 9.01184 8.69849 9.01184ZM8.69849 10.3251C7.24793 10.3251 6.07202 9.14914 6.07202 7.69861C6.07202 6.24805 7.24793 5.07214 8.69849 5.07214C10.149 5.07214 11.325 6.24805 11.325 7.69861C11.325 9.14914 10.149 10.3251 8.69849 10.3251Z" fill="#71717A"/>
</g>
<defs>
<clipPath id="clip0_292_6268">
<rect width="15.7588" height="15.7588" fill="white" transform="translate(0.819092 0.476562)"/>
</clipPath>
</defs>
</svg>
