<svg width="20" height="20" viewBox="0 0 20 20" fill="none" xmlns="http://www.w3.org/2000/svg">
<g clip-path="url(#clip0_292_7568)">
<path d="M12.574 13.1794C12.5186 12.5668 12.5398 12.1393 12.5398 11.5796C12.8172 11.434 13.3143 10.5061 13.3983 9.72213C13.6164 9.70427 13.9603 9.49147 14.061 8.65129C14.1153 8.20023 13.8995 7.94639 13.768 7.86659C14.1229 6.79917 14.8601 3.49696 12.4046 3.15572C12.1519 2.71188 11.5047 2.4873 10.6638 2.4873C7.29925 2.54924 6.89341 5.02799 7.63099 7.86659C7.49989 7.94639 7.28405 8.20023 7.33801 8.65129C7.43909 9.49147 7.78261 9.70427 8.00073 9.72213C8.08433 10.5057 8.60113 11.434 8.87929 11.5796C8.87929 12.1393 8.90019 12.5668 8.84471 13.1794C8.17895 14.9692 3.68697 14.4668 3.47949 17.9187H17.9195C17.7124 14.4668 13.2398 14.9692 12.574 13.1794Z" fill="#02101B"/>
</g>
<defs>
<clipPath id="clip0_292_7568">
<rect width="19" height="19" fill="white" transform="translate(0.819336 0.819336)"/>
</clipPath>
</defs>
</svg>
