<svg width="17" height="17" viewBox="0 0 17 17" fill="none" xmlns="http://www.w3.org/2000/svg">
<path d="M12.1128 13.4887L13.2947 14.4736V14.8019H4.10205V14.4736L5.28396 13.4887H4.10205C3.37677 13.4887 2.78882 12.9007 2.78882 12.1754V4.95264C2.78882 3.50208 3.96473 2.32617 5.41528 2.32617H11.9814C13.432 2.32617 14.6079 3.50208 14.6079 4.95264V12.1754C14.6079 12.9007 14.02 13.4887 13.2947 13.4887H12.1128ZM9.35498 3.6394V7.5791H13.2947V4.95264C13.2947 4.22736 12.7067 3.6394 11.9814 3.6394H9.35498ZM8.04175 3.6394H5.41528C4.69001 3.6394 4.10205 4.22736 4.10205 4.95264V7.5791H8.04175V3.6394ZM13.2947 8.89234H4.10205V12.1754H13.2947V8.89234ZM5.74359 11.5188C5.19963 11.5188 4.75867 11.0778 4.75867 10.5339C4.75867 9.98994 5.19963 9.54895 5.74359 9.54895C6.28755 9.54895 6.72852 9.98994 6.72852 10.5339C6.72852 11.0778 6.28755 11.5188 5.74359 11.5188ZM11.6531 11.5188C11.1092 11.5188 10.6682 11.0778 10.6682 10.5339C10.6682 9.98994 11.1092 9.54895 11.6531 9.54895C12.1971 9.54895 12.6381 9.98994 12.6381 10.5339C12.6381 11.0778 12.1971 11.5188 11.6531 11.5188Z" fill="#71717A"/>
</svg>
