<svg width="14" height="14" viewBox="0 0 14 14" fill="none" xmlns="http://www.w3.org/2000/svg">
<path d="M6.63812 13.7202C3.01173 13.7202 0.0719604 10.7804 0.0719604 7.15406C0.0719604 3.52766 3.01173 0.587891 6.63812 0.587891C10.2645 0.587891 13.2043 3.52766 13.2043 7.15406C13.2043 10.7804 10.2645 13.7202 6.63812 13.7202ZM6.63812 12.407C9.53925 12.407 11.8911 10.0552 11.8911 7.15406C11.8911 4.25294 9.53925 1.90112 6.63812 1.90112C3.73701 1.90112 1.38519 4.25294 1.38519 7.15406C1.38519 10.0552 3.73701 12.407 6.63812 12.407ZM5.98322 9.78052L3.19745 6.99476L4.12605 6.06611L5.98322 7.92335L9.69763 4.20895L10.6262 5.13754L5.98322 9.78052Z" fill="#059669"/>
</svg>
