<svg width="16" height="16" viewBox="0 0 16 16" fill="none" xmlns="http://www.w3.org/2000/svg">
<path d="M0.819092 4.06934C0.819092 3.24053 1.14833 2.44568 1.73438 1.85963C2.32043 1.27358 3.11529 0.944336 3.94409 0.944336H12.6941C13.5229 0.944336 14.3177 1.27358 14.9038 1.85963C15.4899 2.44568 15.8191 3.24053 15.8191 4.06934V10.9443H14.9041L13.2366 8.44434H14.5691V4.06934C14.5691 3.57206 14.3715 3.09514 14.0199 2.74351C13.6683 2.39188 13.1914 2.19434 12.6941 2.19434H3.94409C3.44681 2.19434 2.9699 2.39188 2.61827 2.74351C2.26664 3.09514 2.06909 3.57206 2.06909 4.06934V8.44434H3.40159L1.73409 10.9443H0.819092V4.06934ZM6.68659 10.9443H9.95159L9.11909 8.44434H7.51909L6.68659 10.9443ZM11.2691 10.9443H13.4016L11.7341 8.44434H10.4366L11.2691 10.9443ZM3.23659 10.9443H5.36909L6.20159 8.44434H4.90409L3.23659 10.9443Z" fill="#02101B"/>
<path d="M0.819092 11.9443V12.5693C0.818995 13.3569 1.11625 14.1154 1.6514 14.6932C2.18654 15.271 2.9201 15.6254 3.70534 15.6856L4.95159 11.9443H0.819092Z" fill="#02101B"/>
<path d="M10.3691 11.9443H6.26909L5.01909 15.6943H11.6191L10.3691 11.9443Z" fill="#02101B"/>
<path d="M15.8191 11.9443H11.6866L12.9328 15.6856C13.7181 15.6254 14.4516 15.271 14.9868 14.6932C15.5219 14.1154 15.8192 13.3569 15.8191 12.5693V11.9443Z" fill="#02101B"/>
</svg>
