<svg width="16" height="13" viewBox="0 0 16 13" fill="none" xmlns="http://www.w3.org/2000/svg">
<path d="M0.427612 3.35274C2.45709 1.7115 5.04087 0.728516 7.85424 0.728516C10.6676 0.728516 13.2514 1.7115 15.2809 3.35274L14.4557 4.37439C12.6517 2.91551 10.355 2.04175 7.85424 2.04175C5.35347 2.04175 3.05677 2.91551 1.25279 4.37439L0.427612 3.35274ZM2.49056 5.90686C3.9563 4.72153 5.82236 4.0116 7.85424 4.0116C9.88614 4.0116 11.7522 4.72153 13.2179 5.90686L12.3927 6.92855C11.1525 5.92557 9.57352 5.32483 7.85424 5.32483C6.13496 5.32483 4.55598 5.92557 3.31574 6.92855L2.49056 5.90686ZM4.55352 8.46103C5.45551 7.73153 6.60384 7.29468 7.85424 7.29468C9.10463 7.29468 10.253 7.73153 11.155 8.46103L10.3298 9.48266C9.6533 8.93556 8.79202 8.60791 7.85424 8.60791C6.91646 8.60791 6.05519 8.93556 5.37869 9.48266L4.55352 8.46103ZM6.61645 11.0151C6.95474 10.7416 7.38535 10.5778 7.85424 10.5778C8.32313 10.5778 8.75374 10.7416 9.09202 11.0151L7.85424 12.5476L6.61645 11.0151Z" fill="#71717A"/>
</svg>
